# xmcd CD database file
#
# Track frame offsets:
#	182
#	12727
#	26760
#	39512
#	54165
#	67947
#	80802
#	92475
#	106300
#	120842
#	134290
#	146845
#	161800
#	174877
#	189075
#	202452
#	215807
#	229932
#	242107
#	255600
#
# Disc length: 3600 seconds
#
# Revision: 0
# Processed by: cddbd v1.4PL0 Copyright (c) Steve Scherf et al.
# Submitted via: CDex 1.51
#
DISCID=1c0e0e14
DTITLE=Count Basie - That's Jazz - Swinging The Blues
DYEAR=1990
DGENRE=Jazz
TTITLE0=Swinging The Blues
TTITLE1=Jumping At The Woodside
TTITLE2=Jive At Five
TTITLE3=Oh Lady Be Good
TTITLE4=Pennies From Heaven
TTITLE5=Swinging At The Daisy Chain
TTITLE6=Roseland Shuffle
TTITLE7=One O'Clock Jump
TTITLE8=You Can Depend On Me
TTITLE9=Time Out
TTITLE10=Shorty George
TTITLE11=Every Tub
TTITLE12=Boogie Woogie (I May Be Wrong)
TTITLE13=Topsy
TTITLE14=John's Idea
TTITLE15=Sent For You Yesterday
TTITLE16=Texas Shuffle
TTITLE17=Dark Rapture
TTITLE18=Doggin' Around
TTITLE19=Blue And Sentimental
EXTD=YEAR: 1990
EXTT0=
EXTT1=
EXTT2=
EXTT3=
EXTT4=
EXTT5=
EXTT6=
EXTT7=
EXTT8=
EXTT9=
EXTT10=
EXTT11=
EXTT12=
EXTT13=
EXTT14=
EXTT15=
EXTT16=
EXTT17=
EXTT18=
EXTT19=
PLAYORDER=
